<svg width="10" height="10" viewBox="0 0 10 10" fill="none" xmlns="http://www.w3.org/2000/svg">
<path d="M5.74179 4.9861L9.10154 1.62635C9.31028 1.41779 9.31028 1.07939 9.10154 0.870832C8.8928 0.662095 8.55476 0.662095 8.34602 0.870832L4.98628 4.23058L1.62635 0.870832C1.41761 0.662095 1.07957 0.662095 0.870836 0.870832C0.662099 1.07939 0.662099 1.41779 0.870836 1.62635L4.23076 4.9861L0.870836 8.34584C0.662099 8.5544 0.662099 8.8928 0.870836 9.10136C0.975205 9.20555 1.11199 9.25773 1.24859 9.25773C1.3852 9.25773 1.52198 9.20555 1.62635 9.10118L4.98628 5.74143L8.34602 9.10118C8.45039 9.20555 8.58718 9.25773 8.72378 9.25773C8.86039 9.25773 8.99717 9.20555 9.10154 9.10118C9.31028 8.89262 9.31028 8.55422 9.10154 8.34566L5.74179 4.9861Z" fill="#FF496A"/>
</svg>
